<svg version="1.1" viewBox="0 0 110.67 113.3" xmlns="http://www.w3.org/2000/svg">
	<g transform="translate(-47.337 -87.937)">
		<path transform="translate(-1.8541 -4.639)" d="m100.37 195.69c-7.0062-2.839-13.057-6.0367-18.883-9.9798-2.73-1.8477-3.0752-2.163-2.7781-2.5375 0.18658-0.23525 15.163-16.56 33.28-36.277l32.941-35.85 0.17049 8.1941c0.29731 14.289 2.0224 26.259 5.551 38.519l0.80828 2.8082-0.58609 1.1605c-1.8854 3.7332-6.1126 9.2032-10.568 13.675-6.9192 6.9449-14.883 12.512-24.656 17.234-4.8846 2.3603-10.222 4.5208-11.125 4.5032-0.33243-6e-3 -2.2016-0.65896-4.1537-1.45z" fill="#d0d0d0"/>
		<path transform="translate(-1.8541 -4.639)" d="m68.446 174.87c-4.1549-4.253-7.3074-8.2058-9.5656-11.994l-1.3542-2.2717 0.38042-1.2388c1.7126-5.5768 3.4209-13.364 4.4508-20.289 1.107-7.4436 1.5537-13.613 1.5856-21.9l0.0293-7.6122 2.6458-1.0278c8.959-3.4802 22.513-6.2548 34.793-7.1224 6.0665-0.4286 17.476 0.888 27.517 3.1753 3.8512 0.87731 8.7448 2.2627 9.0549 2.5634 0.13056 0.12663-59.374 65.24-65.389 71.553-0.10834 0.1137-1.9744-1.6127-4.1469-3.8365z" fill="#b9b9b9"/>
		<path transform="translate(-1.8541 -4.639)" d="m99.962 204.28c-18.213-7.2875-33.409-18.154-44.086-31.526-2.295-2.8743-5.1777-7.1433-6.086-9.0128l-0.59918-1.2333 1.2354-4.1761c4.4371-15 6.3246-28.595 6.3809-45.961l0.03082-9.5062 1.8473-0.76141c10.193-4.2015 26.853-7.892 41.976-9.2984 3.2568-0.30288 4.5099-0.30405 7.7931-0.0073 8.5838 0.77594 17.587 2.2865 26.024 4.3666 5.3797 1.3262 13.402 3.8512 16.28 5.1236l1.5002 0.66348-0.18281 5.4941c-0.5425 16.304 2.2457 36.922 6.9864 51.664l0.80323 2.4978-1.4589 2.5213c-3.1824 5.5-7.1239 10.413-12.861 16.031-7.9684 7.8028-15.538 13.131-26.407 18.589-5.8973 2.961-13.461 6.14-14.574 6.1257-0.35162-5e-3 -2.4224-0.72166-4.6017-1.5937zm8.2168-2.78c9.1992-3.6752 19.097-9.1538 26.165-14.483 7.0256-5.2971 14.347-12.721 18.707-18.971 1.7928-2.5694 3.3937-5.388 3.3898-5.9685-2e-3 -0.28258-0.2465-1.2877-0.5436-2.2336-0.89754-2.8575-2.8237-10.728-3.6729-15.008-2.1259-10.715-3.0078-19.863-3.0357-31.488l-0.0205-8.5284-3.175-1.1622c-12.028-4.4026-30.47-7.9382-41.407-7.9382-7.9432 0-22.14 2.1953-32.288 4.9928-2.7144 0.74831-10.306 3.2119-12.162 3.9469-0.34003 0.13462-0.38394 0.99998-0.30655 6.0415 0.23541 15.336-1.8251 31.288-5.9718 46.233-0.66622 2.4011-1.2618 4.6643-1.3236 5.0293-0.1423 0.84094 3.6327 6.6039 6.8444 10.449 4.5052 5.3934 11.29 11.64 17.318 15.943 6.3994 4.5686 15.355 9.4448 23.656 12.881 2.2556 0.9336 4.1105 1.706 4.1222 1.7164 0.0116 0.0104 1.6785-0.6432 3.7042-1.4525z" fill="#8c8c8c"/>
	</g>
</svg>
